<?xml version="1.0" encoding="utf-8"?>
<!DOCTYPE svg PUBLIC "-//W3C//DTD SVG 1.1//EN" "http://www.w3.org/Graphics/SVG/1.1/DTD/svg11.dtd">
<svg xmlns="http://www.w3.org/2000/svg" x="0px" y="0px" viewBox="0 0 200 350" xml:space="preserve">
<g>
	<path d="M34.6,273.6c-4.5-3.8-10.2-5.4-13.4-9.6c-3.2-5.4-4.2-12.5-4.2-18.6c0-4.8,3.8-12.8,1.9-17.3c-1.6-4.5,7.7-11.5,9.9-14.7
		c5.8-7.7,11.5-15.7,17.6-23.4c2.9-3.8,2.6-7.4,4.2-11.5c1.9-4.2,4.5-7.4,7-11.2c5.4-8.3,9.6-16.6,9-26.9c-0.3-4.8-3.5-8.6-7.4-11.2
		c-3.2-2.2-5.8-6.1-9-8.6c-2.9-2.2-6.7-8-9.9-9c-4.2-1.3-7.7,2.6-12.2,0.6c-4.2-1.9-7.7-4.5-9.9-8.3c-1.9-3.8-1.9-8-4.5-11.5
		c-4.2-6.1-1.9-8.6-0.3-14.4c1-3.8,2.2-7.4,5.8-9.6c2.2-1.6,9.9-0.6,9.9-3.8c0.3-2.2-1.9-8,2.6-7c5.1,1,7-4.8,9.9-8
		c2.9-2.9,6.4-5.4,9.3-8.3C57,34.8,65.3,31,73,27.2c9.3-4.5,20.2-7.7,30.4-7.7c5.1-0.3,9.9,1.6,15,1.6c4.8,0,9.6,0.6,14.4,1.6
		c8.3,1.6,20.2,7.4,25.9,14.1c3.2,3.8,15.4,10.9,14.1,16c-1.3,4.5,1.3,9.3-2.9,13.4c-3.8,3.5-4.2,3.5-3.8,8.6c0,1.9-0.6,4.2-0.3,6.1
		c0.3,1.9,1.6,2.2,2.6,3.5c1,1.6,0.3,3.2,1.6,4.8c1.6,1.9,2.9,4.2,4.2,6.4c1.9,3.8,8,10.6,3.8,14.4c-2.9,2.6-7.7,2.2-9.9,5.4
		c-2.2,3.2,1,7-1.9,9.6c-1.9,1.6-1,3.2-1.6,5.1c-0.6,1.6-2.2,2.9-2.6,4.8c-0.6,4.5,1.9,7.7-1.3,11.8c-2.9,3.2-7.7,4.2-11.8,5.1
		c-8.6,1.9-19.2,0.3-24.3,9.3c-5.1,8-2.6,16,1.9,23.7c1.3,2.6,5.8,6.7,3.8,9.9c-2.2,3.8-3.2,4.2-1.9,9.3
		c4.8,20.8,25.3,28.5,38.4,43.2c3.2,3.5,5.8,7,9,10.2c2.6,2.9,1.6,6.4,1,9.6c-1.3,9-7.7,17.6-13.8,24c-7.7,8-15.4,14.7-14.7,26.6
		c0,2.6,2.6,9.6,1.3,11.5c-1.6,2.6-10.9,2.2-13.1,1.9c-20.5-2.6-38.1-11.5-55-22.7c-8.6-5.4-16.6-11.8-24.3-18.2
		c-3.8-3.5-7.7-7-12.2-9.9C42.3,278.7,37.5,273.6,34.6,273.6C32.7,272,35.5,273.6,34.6,273.6z"/>
</g>
</svg>
